<?xml version="1.0" encoding="utf-8"?>
<!-- Generator: Adobe Illustrator 21.0.2, SVG Export Plug-In . SVG Version: 6.00 Build 0)  -->
<svg version="1.1" id="图层_1" xmlns="http://www.w3.org/2000/svg" xmlns:xlink="http://www.w3.org/1999/xlink" x="0px" y="0px"
	 viewBox="0 0 815 170" style="enable-background:new 0 0 815 170;" xml:space="preserve">
<style type="text/css">
	.st0{fill:#60BC44;}
	.st1{fill:#767676;}
</style>
<path class="st0" d="M166.5,58.5c0-5.5-3.9-12.3-8.7-15l-44.1-25.4c-4.7-2.8-12.6-2.7-17.3,0l-44,25.5c-4.8,2.7-8.7,9.5-8.7,15
	l0.1,50.9c0,5.5,3.9,12.3,8.7,15l44.1,25.4c4.7,2.8,12.6,2.7,17.3,0l17.6-10.2l-12.6-21.9c-4.3,1.7-8.9,2.7-13.8,2.7
	c-20.1,0-36.4-16.4-36.4-36.7c0-20.2,16.4-36.6,36.5-36.5c8.2,0,15.7,2.7,21.8,7.3c6.2,4.4,10.8,10.9,12.9,18.4
	c1.1,3.4,1.6,7.1,1.6,10.9c0,12-5.8,22.7-14.7,29.3l12.5,21.8l18.6-10.7c4.8-2.7,8.7-9.5,8.7-15L166.5,58.5z"/>
<ellipse transform="matrix(1.839170e-02 -0.9998 0.9998 1.839170e-02 19.2501 187.617)" class="st0" cx="105.2" cy="84" rx="27.9" ry="27.9"/>
<g>
	<path class="st1" d="M290,114.3c4.7,0,5.5-2.7,6.3-13.6c2,1.5,5.6,2.9,8.1,3.5c-1.2,13.5-3.8,18.2-13.7,18.2h-18.1
		c-10.8,0-13.8-3-13.8-14.6v-7.2H239v5.2h-8.5V55.7h28.1V43.3h8.7v12.3h28.5v45h-28.5v7.4c0,5.3,0.8,6.3,5.9,6.3H290z M239,63.7
		v10.7h19.6V63.7H239z M258.6,92.6V81.9H239v10.7H258.6z M267.3,63.7v10.7h20.2V63.7H267.3z M287.5,92.6V81.9h-20.2v10.7H287.5z"/>
	<path class="st1" d="M391.3,89.6h-35v24c0,5-1.2,7.5-4.9,8.7c-3.7,1.3-9.5,1.5-17.7,1.5c-0.5-2.4-2.1-6.2-3.5-8.5
		c6.7,0.3,13.3,0.3,15.2,0.2c1.8-0.1,2.4-0.5,2.4-2.1V89.6h-35.5v-8.2h35.5V69c6.5-3.1,14.2-7.8,19.9-12.4h-46.7v-8h55.7l1.8-0.4
		l6.2,4.8c-7.5,7.2-18.3,15.1-28.4,20.4v8.1h35V89.6z"/>
	<path class="st1" d="M479.2,81.5c0,0-0.2,2.3-0.4,3.5c-1.3,17.4-2.6,24.7-5.5,27.5c-2,2.1-4.2,2.7-7.6,3c-2.8,0.2-8.1,0.2-13.6-0.1
		c-0.2-2.3-1.1-5.6-2.7-7.8c5.5,0.5,11,0.6,13.2,0.6c1.8,0,2.7-0.1,3.8-0.9c1.8-1.5,2.8-6.7,3.7-18.1h-30.3v34.3h-8.4V89.3h-30.1
		v-7.8h30.1V65.9h-24.8V58h24.8V43.2h8.4V58h26.6v23.5H479.2z M439.9,81.5h18.4V65.9h-18.4V81.5z M474.5,63.2
		c-3.6-3.4-11.2-8.9-16.9-12.6l4.8-5.5c5.6,3.3,13.4,8.5,17.3,11.8L474.5,63.2z"/>
	<path class="st1" d="M515,86.7c-3.2,1.2-6.3,2.3-9.3,3.5v24c0,4.1-0.7,6.3-3,7.6c-2.5,1.4-5.8,1.7-11.1,1.7
		c-0.2-2.1-1.2-5.6-2.3-7.8c3.3,0.1,6.3,0.1,7.2,0c1.1,0,1.5-0.3,1.5-1.4V93.1l-8.7,3.2l-2.1-7.7c3.1-1,6.8-2.2,10.8-3.6V67.7h-10
		v-7.6h10V43.1h7.7v17.1h8.4v7.6h-8.4v14.5c2.6-0.9,5.3-1.8,7.9-2.8L515,86.7z M564.3,92.6c-3.4,8-8.9,14.2-15.7,19
		c6.1,2.4,12.9,4.2,20,5.4c-1.7,1.5-3.7,4.6-4.8,6.6c-8.3-1.6-16-4.1-22.8-7.6c-7.9,3.9-17.2,6.3-26.7,7.9c-0.6-1.9-2.2-5-3.4-6.6
		c8.1-1.1,15.9-2.9,22.9-5.6c-5.5-3.9-10.1-8.4-13.6-13.7l1.3-0.5h-4.2v-6.9h19.8v-7.6h-19.1V52.3h0.1c4.9-1.7,10.4-4.2,13.7-6.4
		l5.4,4.9V43h7.3v33.6h12.7v-7.2H548v-6h9.2v-7h-9.6v-6.5h16.9v33.3h-20v7.6h13.6l1.3-0.3L564.3,92.6z M537.2,76.6V51.4
		c-3.5,1.9-7.8,3.5-12,4.8v7.1h8.4v6.1h-8.4v7.1H537.2z M528.4,97.6c3.3,4.1,7.7,7.6,12.9,10.5c4.8-2.8,9-6.3,12-10.5H528.4z"/>
	<path class="st1" d="M604.2,107.7c-5.6,5.5-14.1,11.2-20.9,14.7c-1.5-1.4-4.5-4.2-6.3-5.5c7-3.1,15-7.8,19.8-12.3L604.2,107.7z
		 M621.4,100.8V115c0,4-0.9,6.1-4.1,7.2c-3.2,1.2-7.7,1.2-14.1,1.2c-0.4-2.2-1.8-5.4-2.9-7.5c5,0.2,10,0.3,11.4,0.1
		c1.4,0,1.8-0.4,1.8-1.3v-13.5c-24.3,1.5-27.8,1.9-30.4,2.9c-0.3-1.4-1.3-5-2-7c3-0.4,6.7-1.6,11.8-3.6c2.5-0.9,7.7-3,13.7-5.8
		c-13.4,0.8-15.6,1.2-17.3,1.8c-0.3-1.5-1.3-4.9-2-6.9c1.8-0.3,3.9-1.1,6.4-2.4c2.3-1.1,9.2-4.8,15.1-9.1h-23.4v10.1h-7.8v-17h34.1
		v-7H579v-7.1h32.8V43h8.5v7.3h32.7v7.1h-32.7v7h34.3v17h-8.1V71.2h-31l2.3,1.8c-5.1,3.6-10.8,6.9-16.6,9.7l17.3-0.9
		c4.4-2.2,8.7-4.8,12.6-7.3l5.6,4.8c-10.8,6.5-22.5,12.1-34,16.5L636,94c-2-1.9-4.2-3.9-6.1-5.5l5.7-3.6
		c6.1,4.9,13.8,12.2,17.6,17.1l-6.2,4.2c-1.4-1.9-3.3-4.2-5.7-6.7L621.4,100.8z M633.3,104.1c7,3.7,16.5,9.4,21.4,13.5l-6.6,4.6
		c-4.5-4-13.8-10-21-14L633.3,104.1z"/>
</g>
</svg>
