<?xml version="1.0" encoding="utf-8"?>
<!-- Generator: Adobe Illustrator 21.0.2, SVG Export Plug-In . SVG Version: 6.00 Build 0)  -->
<svg version="1.1" id="图层_1" xmlns="http://www.w3.org/2000/svg" xmlns:xlink="http://www.w3.org/1999/xlink" x="0px" y="0px"
	 viewBox="0 0 815 170" style="enable-background:new 0 0 815 170;" xml:space="preserve">
<style type="text/css">
	.st0{filter:url(#Adobe_OpacityMaskFilter);}
	.st1{mask:url(#SVGID_1_);}
	.st2{fill:#60BC44;}
	.st3{fill:#767676;}
</style>
<defs>
	<filter id="Adobe_OpacityMaskFilter" filterUnits="userSpaceOnUse" x="46.1" y="16.7" width="123.8" height="135.9">
		<feFlood  style="flood-color:white;flood-opacity:1" result="back"/>
		<feBlend  in="SourceGraphic" in2="back" mode="normal"/>
	</filter>
</defs>
<mask maskUnits="userSpaceOnUse" x="46.1" y="16.7" width="123.8" height="135.9" id="SVGID_1_">
	<g class="st0">
		<rect x="135.5" y="105.3" transform="matrix(0.8576 -0.5144 0.5144 0.8576 -50.0318 91.4505)" width="9.2" height="61.5"/>
	</g>
</mask>
<g class="st1">
	<g>
		
			<ellipse transform="matrix(0.9999 -1.669203e-02 1.669203e-02 0.9999 -1.3653 1.8498)" class="st2" cx="110.1" cy="82.7" rx="24.7" ry="24.8"/>
	</g>
	<g>
		<path class="st2" d="M168.9,58c-0.1-5.5-4.1-12.2-9-14.8l-44.6-24.6c-4.8-2.7-12.6-2.5-17.3,0.3L54.5,45.2
			c-4.7,2.8-8.5,9.7-8.4,15.2l1,50.9c0.1,5.5,4.1,12.2,9,14.8l44.6,24.6c4.8,2.7,12.6,2.5,17.3-0.3l43.6-26.3
			c4.7-2.8,8.5-9.7,8.4-15.2L168.9,58z M110.8,116.9c-18.7,0.3-34.2-14.6-34.5-33.4C76,64.8,90.9,49.3,109.6,49
			c18.7-0.3,34.2,14.6,34.5,33.4C144.4,101.1,129.5,116.6,110.8,116.9z"/>
	</g>
</g>
<g>
	<path class="st3" d="M305,47.6v78.8h-8.4V123h-58.6v3.5h-8V47.6H305z M296.7,115.6V55.2h-58.6v60.4H296.7z M290.5,65.6
		c-3.7,5.9-9.1,10.8-15.6,15c6.7,2.9,13.9,4.9,21.2,6.3c-1.6,1.4-3.7,4.3-4.7,6.2c-8.1-1.7-16.2-4.6-23.4-8.4
		c-8.1,4.3-17.1,7.6-25.6,9.5c-0.8-2-2.4-5.3-4-6.8c7.5-1.4,15.3-3.8,22.6-6.9c-3.1-2.1-5.9-4.3-8.4-6.7c-2.3,2-4.7,3.9-7,5.4
		c-1.3-1.4-4-3.9-5.6-5c7.5-4.4,15-11.2,19.4-18.1l6.8,2.3c-1,1.6-2.1,3.1-3.3,4.7h21.6l1.2-0.4L290.5,65.6z M251,100.5
		c12.1,1.3,27.2,4.7,36.1,7.6l-3.7,6c-8.5-3.1-23.9-6.6-36.3-8.1L251,100.5z M259.2,89.8c7.2,1.4,16.4,4.3,21.6,6.7l-3.5,5.3
		c-5-2.4-14.3-5.5-21.6-7.1L259.2,89.8z M267.9,77.2c4.2-2.3,7.9-4.9,11-7.7h-21.4C260.2,72.3,263.7,75,267.9,77.2z"/>
	<path class="st3" d="M337.1,75.9c0,4-0.1,8.2-0.4,12.2h44.2v38.3h-9.2V96.9h-36c-1.5,10.9-5.2,21.2-13.3,29.9
		c-1.3-2-4.5-5.3-6.5-6.7c11.2-12.3,12.4-28.9,12.4-44.2V46h8.7v20.5h23.8V43.9h8.9v22.6h23.4v8.6h-56.2V75.9z"/>
	<path class="st3" d="M434.4,88.6c-3.2,1.3-6.4,2.3-9.5,3.6v24.6c0,4.1-0.7,6.4-3.1,7.7c-2.5,1.4-5.9,1.7-11.3,1.7
		c-0.2-2.2-1.3-5.8-2.3-8c3.3,0.1,6.5,0.1,7.4,0c1.1,0,1.5-0.3,1.5-1.4V95.1l-8.9,3.2l-2.2-7.8c3.1-1,6.9-2.2,11.1-3.7V69.1h-10.3
		v-7.7H417V43.9h7.8v17.5h8.5v7.7h-8.5V84c2.6-0.9,5.4-1.9,8.1-2.9L434.4,88.6z M484.8,94.6c-3.5,8.2-9.1,14.5-16,19.4
		c6.2,2.4,13.1,4.3,20.4,5.5c-1.7,1.5-3.8,4.7-4.9,6.8c-8.5-1.6-16.4-4.2-23.3-7.7c-8.1,4-17.5,6.5-27.3,8.1c-0.6-2-2.2-5.1-3.5-6.8
		c8.3-1.1,16.3-3,23.4-5.8c-5.7-4-10.3-8.5-13.9-13.9l1.3-0.5h-4.3v-7H457v-7.7h-19.5V53.4h0.1c5-1.7,10.6-4.3,13.9-6.6l5.5,5v-8
		h7.5v34.4h13v-7.4H468v-6.1h9.4v-7.2h-9.8v-6.7h17.3v34h-20.4v7.7h13.9l1.3-0.3L484.8,94.6z M457,78.2V52.5c-3.6,2-8,3.6-12.2,4.9
		v7.3h8.5v6.2h-8.5v7.3H457z M448,99.7c3.3,4.1,7.8,7.7,13.1,10.7c4.9-2.9,9.2-6.5,12.2-10.7H448z"/>
	<path class="st3" d="M525.5,110c-5.8,5.6-14.4,11.4-21.3,15c-1.5-1.4-4.6-4.3-6.5-5.6c7.2-3.1,15.3-7.9,20.2-12.6L525.5,110z
		 M543.1,102.9v14.6c0,4-0.9,6.2-4.1,7.4c-3.2,1.3-7.8,1.3-14.4,1.3c-0.5-2.2-1.8-5.5-3-7.7c5.1,0.2,10.2,0.3,11.6,0.1
		c1.4,0,1.8-0.4,1.8-1.4v-13.8c-24.8,1.5-28.4,2-31,3c-0.3-1.4-1.3-5.1-2.1-7.1c3.1-0.4,6.8-1.6,12.1-3.7c2.5-0.9,7.8-3.1,14-5.9
		c-13.7,0.8-15.9,1.3-17.6,1.8c-0.3-1.5-1.3-5-2.1-7c1.8-0.3,4-1.2,6.6-2.4c2.3-1.2,9.4-4.9,15.4-9.3h-23.9v10.3h-7.9V65.7h34.8
		v-7.1h-33.5v-7.3h33.5v-7.5h8.7v7.5h33.4v7.3h-33.4v7.1h35v17.4h-8.3V72.7H537l2.3,1.9c-5.2,3.7-11.1,7-17,9.9l17.6-0.9
		c4.5-2.2,8.9-4.9,12.9-7.5l5.8,4.9c-11.1,6.7-22.9,12.3-34.7,16.8l34.2-2c-2.1-2-4.3-4-6.2-5.6l5.8-3.7c6.2,5,14.1,12.5,18,17.5
		l-6.3,4.3c-1.4-2-3.4-4.3-5.8-6.8L543.1,102.9z M555.2,106.3c7.1,3.8,16.8,9.6,21.9,13.8l-6.8,4.7c-4.6-4-14.1-10.2-21.4-14.3
		L555.2,106.3z"/>
</g>
<g>
</g>
<g>
</g>
<g>
</g>
<g>
</g>
<g>
</g>
<g>
</g>
<g>
</g>
<g>
</g>
<g>
</g>
<g>
</g>
<g>
</g>
<g>
</g>
<g>
</g>
<g>
</g>
<g>
</g>
</svg>
