<?xml version="1.0" encoding="utf-8"?>
<!-- Generator: Adobe Illustrator 21.0.2, SVG Export Plug-In . SVG Version: 6.00 Build 0)  -->
<svg version="1.1" id="图层_1" xmlns="http://www.w3.org/2000/svg" xmlns:xlink="http://www.w3.org/1999/xlink" x="0px" y="0px"
	 viewBox="0 0 815 170" style="enable-background:new 0 0 815 170;" xml:space="preserve">
<style type="text/css">
	.st0{filter:url(#Adobe_OpacityMaskFilter);}
	.st1{mask:url(#SVGID_1_);}
	.st2{fill:#60BC44;}
	.st3{fill:#767676;}
</style>
<defs>
	<filter id="Adobe_OpacityMaskFilter" filterUnits="userSpaceOnUse" x="46.1" y="16.7" width="123.8" height="135.9">
		<feFlood  style="flood-color:white;flood-opacity:1" result="back"/>
		<feBlend  in="SourceGraphic" in2="back" mode="normal"/>
	</filter>
</defs>
<mask maskUnits="userSpaceOnUse" x="46.1" y="16.7" width="123.8" height="135.9" id="SVGID_1_">
	<g class="st0">
		<rect x="135.5" y="105.3" transform="matrix(0.8576 -0.5144 0.5144 0.8576 -50.0318 91.4505)" width="9.2" height="61.5"/>
	</g>
</mask>
<g class="st1">
	<g>
		
			<ellipse transform="matrix(0.9999 -1.669203e-02 1.669203e-02 0.9999 -1.3653 1.8498)" class="st2" cx="110.1" cy="82.7" rx="24.7" ry="24.8"/>
	</g>
	<g>
		<path class="st2" d="M168.9,58c-0.1-5.5-4.1-12.2-9-14.8l-44.6-24.6c-4.8-2.7-12.6-2.5-17.3,0.3L54.5,45.2
			c-4.7,2.8-8.5,9.7-8.4,15.2l1,50.9c0.1,5.5,4.1,12.2,9,14.8l44.6,24.6c4.8,2.7,12.6,2.5,17.3-0.3l43.6-26.3
			c4.7-2.8,8.5-9.7,8.4-15.2L168.9,58z M110.8,116.9c-18.7,0.3-34.2-14.6-34.5-33.4C76,64.8,90.9,49.3,109.6,49
			c18.7-0.3,34.2,14.6,34.5,33.4C144.4,101.1,129.5,116.6,110.8,116.9z"/>
	</g>
</g>
<g>
	<path class="st3" d="M300,127.1c-1.1-2.4-2.5-5.4-4.5-8.5c-24,1.7-49.2,3.3-67,4.4l-1.4-9c9.4-0.4,21.7-0.9,34.9-1.5V93.9h-28.3
		V57.6h28.3V43.8h9.2v13.9h28.5v36.3h-28.5v18c6.4-0.4,12.8-0.7,19.3-1.1c-2.2-3.2-4.8-6.5-7.1-9.4l7.9-3.2
		c6.3,7.6,13.9,18.1,17.2,25.1L300,127.1z M262.1,85.6V65.9h-19.7v19.7H262.1z M271.3,65.9v19.7h19.4V65.9H271.3z"/>
	<path class="st3" d="M358.5,63.5c-2,4.9-4.2,10.3-6.2,14.7h11.9v7.6h-47v-7.6h12.7c-0.8-4-3-9.9-5.1-14.4l7.3-1.9
		c2.3,4.5,4.6,10.4,5.5,14.4l-6.6,1.9h13.3c2.2-4.8,4.7-11.6,5.9-16.6L358.5,63.5z M362.1,61.6h-42.5v-7.5h17.8
		c-0.9-2.8-2.2-6-3.3-8.6l7.6-2.2c1.7,3.4,3.5,7.6,4.5,10.8h15.9V61.6z M321.9,93.1h38.3v32.3h-8.3v-3.5h-22.1v4.1h-7.9V93.1z
		 M329.8,100.6v13.9h22.1v-13.9H329.8z M398.2,51.7c-3.2,8.4-7.1,18.6-10.7,26.7c7.6,8.2,9.4,15.2,9.4,21.1c0,5.8-1.3,10.1-4.3,12.2
		c-1.5,1.1-3.5,1.7-5.6,2c-2.2,0.3-4.9,0.3-7.5,0.2c-0.1-2.2-0.8-5.7-2.1-7.9c2.3,0.3,4.5,0.3,6,0.3c1.3-0.1,2.6-0.4,3.5-0.9
		c1.7-1.1,2.2-3.6,2.2-6.7c0-5.3-2.2-11.7-9.6-19.3c3-7.2,6.3-16.6,8.5-23.5h-12.4v70.2h-7.4V48.4h22.9l1.3-0.4L398.2,51.7z"/>
	<path class="st3" d="M421.4,95.2c-3.2-2.8-9.9-6.9-15.1-9.5l4.9-5.8c5,2.3,12,6.1,15.4,8.8L421.4,95.2z M408,119.8
		c4.9-5,12.1-13.6,17.8-21.5l5,6.1c-5.1,7.2-11.2,15.4-16.8,21.9L408,119.8z M427.8,57h-19.5v-7.5h19.5v-5.7h8.2v5.7h22.6v-5.7h8.2
		v5.7h20.2V57h-20.2v6.8h-8.2V57H436v6.8h-8.2V57z M416.9,62.6c4.9,2.4,11.9,6.3,15.3,8.8l-5,6.3c-3.3-2.6-10.3-6.8-15-9.4
		L416.9,62.6z M483.1,70.6c-3.8,6-9.1,11.3-15.4,15.8c7.1,3.3,14.9,6,22.4,7.7c-1.8,1.6-4,4.8-5.1,6.8c-1.6-0.5-3.2-0.9-4.9-1.4
		v26.9H472v-3.7h-26.4v3.7h-7.9v-25.8c-1.7,0.5-3.2,1-5,1.4c-0.8-2.1-2.6-5.1-4.1-6.8c8.1-1.7,16.7-4.7,24.6-8.5
		c-3.7-2.3-6.9-4.9-9.8-7.5c-2.8,2.8-5.8,5.4-9.1,7.9c-1.4-1.7-4-4-5.9-5c9.1-6.1,16-14.3,20-20.9l8.2,1.6c-1.1,1.6-2.2,3.1-3.2,4.8
		h23.2l1.4-0.4L483.1,70.6z M479.6,99.3c-6.4-2.2-13-4.9-19.2-8.3c-5.9,3.3-12.3,6-18.7,8.3H479.6z M472,116.1v-10.3h-26.4v10.3H472
		z M448.2,74c3.2,3.1,7.4,6,12.1,8.6c4.1-2.5,7.9-5.5,10.8-8.6H448.2z"/>
	<path class="st3" d="M511.1,86.4c0-4.3,3.1-7.4,6.8-7.4c4,0,7,3.1,7,7.4c0,4-3.1,7.2-7,7.2C514.2,93.6,511.1,90.5,511.1,86.4z"/>
	<path class="st3" d="M546.8,84.4c2.2-6,3.9-15.9,4.5-23.1l6.1,0.9c-0.5,7.4-2.1,17.8-4.3,24.4L546.8,84.4z M573,77.9
		c-0.9-4-3.2-10.1-5.7-15.2v63.7h-8.2V43.9h8.2v16.6l5-2.1c2.8,5.2,5.8,12.2,6.8,16.6L573,77.9z M607.1,92.2
		c4.7,12.2,12.6,22.2,24.6,26.7c-2,1.8-4.7,5.3-5.9,7.7c-12-5.4-19.7-15.5-24.7-28.6c-3.3,10.7-10.2,21.1-24,28.8
		c-1.2-1.7-4-5-5.9-6.5c14.8-7.4,20.7-17.6,22.9-28.2h-19.6v-7.9h20.8c0.3-3.4,0.4-6.8,0.4-10v-8.7H579v-7.7h16.6V43.9h8.5v13.9
		h19.6v26.5h6.8v7.9H607.1z M604,74.3c0,3.2-0.1,6.6-0.5,10h11.9V65.5H604V74.3z"/>
	<path class="st3" d="M666,88.6c-3.2,1.3-6.4,2.3-9.5,3.6v24.6c0,4.1-0.7,6.4-3.1,7.7c-2.5,1.4-5.9,1.7-11.3,1.7
		c-0.2-2.2-1.3-5.8-2.3-8c3.3,0.1,6.5,0.1,7.4,0c1.1,0,1.5-0.3,1.5-1.4V95.1l-8.9,3.2l-2.2-7.8c3.1-1,6.9-2.2,11.1-3.7V69.1h-10.3
		v-7.7h10.3V43.9h7.8v17.5h8.5v7.7h-8.5V84c2.6-0.9,5.4-1.9,8.1-2.9L666,88.6z M716.4,94.6c-3.5,8.2-9.1,14.5-16,19.4
		c6.2,2.4,13.1,4.3,20.4,5.5c-1.7,1.5-3.8,4.7-4.9,6.8c-8.5-1.6-16.4-4.2-23.3-7.7c-8.1,4-17.5,6.5-27.3,8.1c-0.6-2-2.2-5.1-3.5-6.8
		c8.3-1.1,16.3-3,23.4-5.8c-5.7-4-10.3-8.5-13.9-13.9l1.3-0.5h-4.3v-7h20.2v-7.7h-19.5V53.4h0.1c5-1.7,10.6-4.3,13.9-6.6l5.5,5v-8
		h7.5v34.4h13v-7.4h-9.4v-6.1h9.4v-7.2h-9.8v-6.7h17.3v34h-20.4v7.7H710l1.3-0.3L716.4,94.6z M688.7,78.2V52.5
		c-3.6,2-8,3.6-12.2,4.9v7.3h8.5v6.2h-8.5v7.3H688.7z M679.7,99.7c3.3,4.1,7.8,7.7,13.1,10.7c4.9-2.9,9.2-6.5,12.2-10.7H679.7z"/>
</g>
<g>
</g>
<g>
</g>
<g>
</g>
<g>
</g>
<g>
</g>
<g>
</g>
<g>
</g>
<g>
</g>
<g>
</g>
<g>
</g>
<g>
</g>
<g>
</g>
<g>
</g>
<g>
</g>
<g>
</g>
</svg>
