<?xml version="1.0" encoding="utf-8"?>
<!-- Generator: Adobe Illustrator 21.0.2, SVG Export Plug-In . SVG Version: 6.00 Build 0)  -->
<svg version="1.1" id="图层_1" xmlns="http://www.w3.org/2000/svg" xmlns:xlink="http://www.w3.org/1999/xlink" x="0px" y="0px"
	 viewBox="0 0 815 170" style="enable-background:new 0 0 815 170;" xml:space="preserve">
<style type="text/css">
	.st0{filter:url(#Adobe_OpacityMaskFilter);}
	.st1{mask:url(#SVGID_1_);}
	.st2{fill:#60BC44;}
	.st3{fill:#767676;}
</style>
<defs>
	<filter id="Adobe_OpacityMaskFilter" filterUnits="userSpaceOnUse" x="46.1" y="16.7" width="123.8" height="135.9">
		<feFlood  style="flood-color:white;flood-opacity:1" result="back"/>
		<feBlend  in="SourceGraphic" in2="back" mode="normal"/>
	</filter>
</defs>
<mask maskUnits="userSpaceOnUse" x="46.1" y="16.7" width="123.8" height="135.9" id="SVGID_1_">
	<g class="st0">
		<rect x="135.5" y="105.3" transform="matrix(0.8576 -0.5144 0.5144 0.8576 -50.0318 91.4505)" width="9.2" height="61.5"/>
	</g>
</mask>
<g class="st1">
	<g>
		
			<ellipse transform="matrix(0.9999 -1.669203e-02 1.669203e-02 0.9999 -1.3653 1.8498)" class="st2" cx="110.1" cy="82.7" rx="24.7" ry="24.8"/>
	</g>
	<g>
		<path class="st2" d="M168.9,58c-0.1-5.5-4.1-12.2-9-14.8l-44.6-24.6c-4.8-2.7-12.6-2.5-17.3,0.3L54.5,45.2
			c-4.7,2.8-8.5,9.7-8.4,15.2l1,50.9c0.1,5.5,4.1,12.2,9,14.8l44.6,24.6c4.8,2.7,12.6,2.5,17.3-0.3l43.6-26.3
			c4.7-2.8,8.5-9.7,8.4-15.2L168.9,58z M110.8,116.9c-18.7,0.3-34.2-14.6-34.5-33.4C76,64.8,90.9,49.3,109.6,49
			c18.7-0.3,34.2,14.6,34.5,33.4C144.4,101.1,129.5,116.6,110.8,116.9z"/>
	</g>
</g>
<g>
	<path class="st3" d="M272.3,95.9c-3.1,17-11.2,26.5-41.7,30.7c-0.6-1.9-2.4-5.1-3.7-6.8c28.3-3.3,34.6-10.6,37.1-23.8H272.3z
		 M254.5,73.3c-8.5,3.1-17.7,6-24.8,8.5l-2.4-7.6c6.5-1.9,16.3-4.9,25.8-8.1L254.5,73.3z M248.5,62.1c-4-3.1-12.1-7.3-18.4-9.7
		l4.2-5.8c6.3,2.2,14.5,6,18.6,9.1L248.5,62.1z M289,109.7V93.4h-42.2v17h-8.3V85.9h59v23.8H289z M284.1,58.2
		c-0.4,1.3-0.7,2.4-1.2,3.7c4.7,7.6,13.8,13.3,24.9,15.7c-1.8,1.4-3.9,4.5-5,6.5c-9.7-2.8-17.6-8.3-23-15.5
		c-4.2,6.8-11.1,12.5-23.2,16.3c-0.8-1.8-2.9-4.7-4.4-6c15.5-4.3,21-12.1,23.6-20.7h-9c-2.5,3.7-5.6,7.2-9.5,10.4
		c-1.2-1.9-4-4.2-5.8-5.3c7.1-5.4,11.6-12.7,13.8-19l7.9,1.1c-0.8,2.2-1.7,4.2-2.7,6.4h28.2l1.3-0.3l6.1,1.5
		c-2,5.1-4.6,10.8-6.7,14.4l-7.4-2c1.1-1.9,2.3-4.6,3.4-7.3H284.1z M273.3,107.4c10.5,3,25.6,8.3,33.3,12l-5,6.8
		c-7.4-3.9-22.1-9.5-33-13L273.3,107.4z"/>
	<path class="st3" d="M330.8,84.1c-3.3-2.5-10-6.7-14.8-9.4l4.9-6c4.7,2.5,11.4,6.3,15,8.7L330.8,84.1z M337.3,96.6
		c-3.5,9.4-8.1,20.2-12.2,28.6l-7.6-4.5c3.8-7,9.2-18.5,13.1-28.8L337.3,96.6z M335,60.5c-3.3-2.6-10-6.8-14.8-9.9l4.9-5.8
		c4.6,2.6,11.4,6.6,14.9,9.1L335,60.5z M350.9,72.9c0,15.7-1.6,38.4-12.1,53.3c-1.4-1.3-5-3.5-7-4.4c10.1-14,11-34.3,11-48.9V48.4
		h55.1v7.6h-46.9V72.9z M365.1,103c-2.9,6.5-7.2,13.8-10.9,18.3c-1.5-1.1-4.8-3.1-6.7-4c3.9-4.2,7.7-10.5,10.1-16.3L365.1,103z
		 M378.4,96.5v21.7c0,3.8-0.6,5.8-3.3,6.9c-2.6,1.3-6.6,1.3-12.4,1.3c-0.3-2.1-1.3-5.1-2.2-7.2c3.8,0.2,7.5,0.1,8.5,0.1
		s1.4-0.4,1.4-1.3V96.5h-15.2V65h12.9c0.9-2.8,1.9-6.1,2.4-8.5l9.4,1.7c-1.2,2.4-2.4,4.7-3.5,6.8h18.4v31.5H378.4z M362.7,77.8H387
		v-6.5h-24.3V77.8z M362.7,90.3H387v-6.6h-24.3V90.3z M390.1,100.1c3.3,5.4,7.6,12.7,9.5,17.1l-7.6,3.3c-1.9-4.5-5.8-12.1-9.1-17.7
		L390.1,100.1z"/>
	<path class="st3" d="M434.4,88.6c-3.2,1.3-6.4,2.3-9.5,3.6v24.6c0,4.1-0.7,6.4-3.1,7.7c-2.5,1.4-5.9,1.7-11.3,1.7
		c-0.2-2.2-1.3-5.8-2.3-8c3.3,0.1,6.5,0.1,7.4,0c1.1,0,1.5-0.3,1.5-1.4V95.1l-8.9,3.2l-2.2-7.8c3.1-1,6.9-2.2,11.1-3.7V69.1h-10.3
		v-7.7H417V43.9h7.8v17.5h8.5v7.7h-8.5V84c2.6-0.9,5.4-1.9,8.1-2.9L434.4,88.6z M484.8,94.6c-3.5,8.2-9.1,14.5-16,19.4
		c6.2,2.4,13.1,4.3,20.4,5.5c-1.7,1.5-3.8,4.7-4.9,6.8c-8.5-1.6-16.4-4.2-23.3-7.7c-8.1,4-17.5,6.5-27.3,8.1c-0.6-2-2.2-5.1-3.5-6.8
		c8.3-1.1,16.3-3,23.4-5.8c-5.7-4-10.3-8.5-13.9-13.9l1.3-0.5h-4.3v-7H457v-7.7h-19.5V53.4h0.1c5-1.7,10.6-4.3,13.9-6.6l5.5,5v-8
		h7.5v34.4h13v-7.4H468v-6.1h9.4v-7.2h-9.8v-6.7h17.3v34h-20.4v7.7h13.9l1.3-0.3L484.8,94.6z M457,78.2V52.5c-3.6,2-8,3.6-12.2,4.9
		v7.3h8.5v6.2h-8.5v7.3H457z M448,99.7c3.3,4.1,7.8,7.7,13.1,10.7c4.9-2.9,9.2-6.5,12.2-10.7H448z"/>
	<path class="st3" d="M525.5,110c-5.8,5.6-14.4,11.4-21.3,15c-1.5-1.4-4.6-4.3-6.5-5.6c7.2-3.1,15.3-7.9,20.2-12.6L525.5,110z
		 M543.1,102.9v14.6c0,4-0.9,6.2-4.1,7.4c-3.2,1.3-7.8,1.3-14.4,1.3c-0.5-2.2-1.8-5.5-3-7.7c5.1,0.2,10.2,0.3,11.6,0.1
		c1.4,0,1.8-0.4,1.8-1.4v-13.8c-24.8,1.5-28.4,2-31,3c-0.3-1.4-1.3-5.1-2.1-7.1c3.1-0.4,6.8-1.6,12.1-3.7c2.5-0.9,7.8-3.1,14-5.9
		c-13.7,0.8-15.9,1.3-17.6,1.8c-0.3-1.5-1.3-5-2.1-7c1.8-0.3,4-1.2,6.6-2.4c2.3-1.2,9.4-4.9,15.4-9.3h-23.9v10.3h-7.9V65.7h34.8
		v-7.1h-33.5v-7.3h33.5v-7.5h8.7v7.5h33.4v7.3h-33.4v7.1h35v17.4h-8.3V72.7H537l2.3,1.9c-5.2,3.7-11.1,7-17,9.9l17.6-0.9
		c4.5-2.2,8.9-4.9,12.9-7.5l5.8,4.9c-11.1,6.7-22.9,12.3-34.7,16.8l34.2-2c-2.1-2-4.3-4-6.2-5.6l5.8-3.7c6.2,5,14.1,12.5,18,17.5
		l-6.3,4.3c-1.4-2-3.4-4.3-5.8-6.8L543.1,102.9z M555.2,106.3c7.1,3.8,16.8,9.6,21.9,13.8l-6.8,4.7c-4.6-4-14.1-10.2-21.4-14.3
		L555.2,106.3z"/>
</g>
<g>
</g>
<g>
</g>
<g>
</g>
<g>
</g>
<g>
</g>
<g>
</g>
<g>
</g>
<g>
</g>
<g>
</g>
<g>
</g>
<g>
</g>
<g>
</g>
<g>
</g>
<g>
</g>
<g>
</g>
</svg>
